#!OML:ASF F:\VICON\USERDATA\INSTALL\rory3\rory3.ASF
:FULLY-SPECIFIED
:DEGREES
522
root 1.21086 19.2076 -32.5011 -129.437 -25.5045 -216.666
lowerback -19.4002 -8.24465 -24.1747
upperback -15.9925 -13.1498 -9.24951
thorax -6.20386 -7.44362 0.790825
lowerneck -16.895 -0.740468 -19.0332
upperneck -48.5374 -23.6726 -6.43945
head -16.153 -10.3407 2.85358
rclavicle -1.21507e-013 -1.8805e-013
rhumerus -384.385 -32.6611 420.233
rradius 15.5217
rwrist 50.7388
rhand 16.8405 348.333
rfingers 7.12502
rthumb 41.5812 -36.3958
lclavicle -1.21507e-013 -1.8805e-013
lhumerus 20.0034 0.0199099 -23.7712
lradius 19.7009
lwrist -38.2986
lhand 20.7811 34.8015
lfingers 7.12502
lthumb 45.262 58.197
rfemur 150.051 -206.097 -205.3
rtibia 9.00597
rfoot -74.0975 -18.5549
rtoes 63.0024
lfemur 23.5079 -21.2231 14.8892
ltibia 38.8884
lfoot 38.4785 45.6019
ltoes 32.2855
523
root 1.22213 19.2146 -32.5869 -129.119 -25.1491 -216.621
lowerback -19.3664 -8.14774 -24.2145
upperback -16.2386 -13.2399 -9.40469
thorax -6.55733 -7.5161 0.691238
lowerneck -16.7711 -1.07935 -18.8695
upperneck -47.812 -23.4003 -6.36342
head -15.6622 -10.2937 2.77438
rclavicle 1.0138e-014 7.11649e-014
rhumerus -384.024 -32.8533 420.398
rradius 15.7313
rwrist 50.8767
rhand 17.3473 348.105
rfingers 7.12502
rthumb 42.0563 -36.4657
lclavicle 1.0138e-014 7.11649e-014
lhumerus 20.305 -0.249231 -24.5096
lradius 19.7411
lwrist -38.0457
lhand 20.6469 34.9209
lfingers 7.12502
lthumb 45.1372 58.3662
rfemur 150.181 -205.927 -205.463
rtibia 8.06491
rfoot -73.6999 -20.0366
rtoes 62.9123
lfemur 23.4195 -21.6821 14.8951
ltibia 38.7397
lfoot 35.6402 48.3201
ltoes 35.712
524
root 1.23463 19.2195 -32.6725 -128.745 -24.3669 -216.893
lowerback -19.3405 -8.12919 -24.8583
upperback -16.4055 -13.3485 -9.55908
thorax -6.78409 -7.57249 0.827315
lowerneck -16.6971 -1.23544 -18.5369
upperneck -47.1111 -23.1735 -6.62953
head -15.2942 -10.2807 2.55551
rclavicle 1.38155e-014 -2.54444e-014
rhumerus -383.624 -32.8027 420.321
rradius 15.7734
rwrist 50.5788
rhand 17.7048 348.018
rfingers 7.12502
rthumb 42.3912 -36.4399
lclavicle 1.38155e-014 -2.54444e-014
lhumerus 20.3202 -0.170039 -24.9869
lradius 19.7332
lwrist -38.7277
lhand 20.6575 34.7219
lfingers 7.12502
lthumb 45.1471 58.1633
rfemur 150.315 -205.819 -206.139
rtibia 7.24259
rfoot -73.7986 -18.0911
rtoes 63.4377
lfemur 23.4719 -22.2962 13.9971
ltibia 38.4713
lfoot 24.795 54.0928
ltoes 42.6848
525
root 1.25425 19.2181 -32.7632 -128.259 -23.2188 -217.128
lowerback -19.7485 -8.32586 -26.0328
upperback -16.4472 -13.4376 -9.47143
thorax -6.57969 -7.60076 1.31294
lowerneck -16.9063 -1.34885 -18.237
upperneck -46.3629 -22.8503 -6.8852
head -14.8648 -10.2713 2.32391
rclavicle 4.87022e-015 1.10524e-013
rhumerus -383.314 -32.223 419.922
rradius 15.8855
rwrist 49.4173
rhand 18.1314 347.691
rfingers 7.12502
rthumb 42.7905 -36.6284
lclavicle 4.87022e-015 1.10524e-013
lhumerus 19.9577 -0.0259667 -25.3321
lradius 19.6835
lwrist -39.6872
lhand 20.6571 34.4231
lfingers 7.12502
lthumb 45.1467 57.8646
rfemur 150.267 -205.776 -207.234
rtibia 6.05635
rfoot -73.9274 -18.0203
rtoes 63.5371
lfemur 23.4025 -22.8186 12.6171
ltibia 38.1531
lfoot 9.27408 57.8007
ltoes 46.9776
526
root 1.24904 19.2283 -32.8285 -129.109 -24.7156 -215.899
lowerback -18.8457 -7.99417 -23.4022
upperback -16.6303 -13.5359 -9.40893
thorax -7.28336 -7.69596 0.46429
lowerneck -17.03 -1.63714 -17.7558
upperneck -45.2212 -22.29 -7.01963
head -14.1857 -10.1815 2.06573
rclavicle -6.31141e-014 -9.06458e-014
rhumerus -382.839 -31.2381 419.167
rradius 15.9225
rwrist 48.1393
rhand 18.4586 347.296
rfingers 7.12502
rthumb 43.0965 -36.916
lclavicle -6.31141e-014 -9.06458e-014
lhumerus 19.8706 0.306058 -25.4791
lradius 19.6504
lwrist -41.2733
lhand 20.793 34.123
lfingers 7.12502
lthumb 45.273 57.5142
rfemur 151.085 -206.064 -204.572
rtibia 5.80515
rfoot -73.7661 -18.4345
rtoes 63.4236
lfemur 23.236 -23.586 15.0237
ltibia 37.8164
lfoot 7.35734 58.2636
ltoes 47.201
527
root 1.24565 19.2332 -32.8898 -129.808 -25.8593 -214.824
lowerback -18.3995 -7.90335 -21.3955
upperback -16.5335 -13.5514 -9.19035
thorax -7.41882 -7.74821 -0.12453
lowerneck -17.5262 -1.97565 -17.501
upperneck -43.9033 -21.6159 -7.0742
head -13.3665 -10.0681 1.83491
rclavicle -3.98563e-014 -1.87653e-013
rhumerus -382.954 -31.3049 418.842
rradius 15.9335
rwrist 47.6946
rhand 18.3476 346.85
rfingers 7.12502
rthumb 42.9928 -37.399
lclavicle -3.98563e-014 -1.87653e-013
lhumerus 19.4185 -1.23496 -26.5462
lradius 19.6014
lwrist -40.677
lhand 20.9305 34.3634
lfingers 7.12502
lthumb 45.4009 57.7033
rfemur 151.827 -206.28 -202.407
rtibia 5.43973
rfoot -73.4609 -18.7936
rtoes 63.3409
lfemur 22.9812 -24.3034 16.6691
ltibia 37.6046
lfoot 1.63289 58.6766
ltoes 48.2786
528
root 1.29608 19.2015 -33.0199 -128.346 -22.8574 -216.276
lowerback -20.4615 -8.9139 -25.8407
upperback -15.7997 -13.5478 -8.92935
thorax -5.31564 -7.6938 1.47511
lowerneck -18.7563 -2.17854 -17.3815
upperneck -42.7758 -21.0265 -7.14964
head -12.6088 -10.0672 1.60397
rclavicle 4.07509e-014 5.40694e-014
rhumerus -384.009 -32.6537 419.003
rradius 15.8816
rwrist 47.9096
rhand 18.185 346.678
rfingers 7.12502
rthumb 42.8407 -37.6244
lclavicle 4.07509e-014 5.40694e-014
lhumerus 18.2944 -3.62735 -28.1059
lradius 19.3018
lwrist -38.5094
lhand 20.3732 34.6135
lfingers 7.12502
lthumb 44.8825 58.1591
rfemur 150.61 -206.074 -206.087
rtibia 5.06154
rfoot -73.1196 -19.4901
rtoes 63.3904
lfemur 22.4156 -24.4559 12.3516
ltibia 37.2576
lfoot -16.4872 57.6916
ltoes 50.267
529
root 1.30911 19.2058 -33.1103 -128.335 -22.7086 -216.211
lowerback -19.659 -8.65961 -25.4057
upperback -16.3848 -13.9419 -9.1861
thorax -6.42106 -7.89325 1.23667
lowerneck -18.5722 -2.50975 -16.8435
upperneck -41.1381 -19.9487 -6.99422
head -11.7281 -9.69931 1.42758
rclavicle 3.598e-014 -8.62725e-014
rhumerus -383.173 -32.1187 417.711
rradius 15.8953
rwrist 47.7723
rhand 18.2371 346.956
rfingers 7.12502
rthumb 42.8894 -37.3293
lclavicle 3.598e-014 -8.62725e-014
lhumerus 18.3219 -7.00682 -29.448
lradius 19.2059
lwrist -37.4142
lhand 19.912 34.9248
lfingers 7.12502
lthumb 44.4531 58.6366
rfemur 150.583 -206.1 -205.817
rtibia 5.35278
rfoot -72.5793 -19.9156
rtoes 63.3089
lfemur 21.8021 -25.0982 11.9542
ltibia 36.9171
lfoot -22.1847 56.3488
ltoes 50.6769
530
root 1.30943 19.2076 -33.1655 -129.116 -23.4576 -215.447
lowerback -19.2893 -8.75221 -24.0842
upperback -16.0065 -13.9594 -8.8703
thorax -6.08074 -7.89396 0.990578
lowerneck -19.408 -2.73616 -16.567
upperneck -39.7843 -19.1008 -6.82397
head -10.9224 -9.53057 1.27723
rclavicle 8.24956e-015 -1.17283e-013
rhumerus -383.802 -33.2581 417.313
rradius 15.9925
rwrist 48.1007
rhand 18.6347 346.57
rfingers 7.12502
rthumb 43.2611 -37.5829
lclavicle 8.24956e-015 -1.17283e-013
lhumerus 17.6992 -10.4977 -30.8677
lradius 19.0692
lwrist -35.3251
lhand 20.1341 35.5144
lfingers 7.12502
lthumb 44.66 59.1466
rfemur 150.517 -206.5 -204.172
rtibia 6.62281
rfoot -71.9157 -19.3145
rtoes 63.264
lfemur 21.437 -25.1151 13.0512
ltibia 36.434
lfoot -23.2987 55.6244
ltoes 51.3465
